<svg width="15" height="15" viewBox="0 0 15 15" fill="none" xmlns="http://www.w3.org/2000/svg">
<g clip-path="url(#clip0)">
<path d="M7.44072 7.88024C9.28337 7.88024 10.7773 6.13175 10.7773 3.97489C10.7773 0.983924 9.28345 0.0695801 7.44072 0.0695801C5.59792 0.0695801 4.10413 0.983924 4.10413 3.97489C4.10416 6.13175 5.59795 7.88024 7.44072 7.88024Z" fill="#D1D4D6"/>
<path d="M14.8086 13.6286L13.1253 9.8365C13.0483 9.66298 12.913 9.51907 12.7446 9.43141L10.1322 8.07146C10.0746 8.04153 10.0048 8.04735 9.95302 8.08656C9.21413 8.64542 8.34536 8.94082 7.44072 8.94082C6.53595 8.94082 5.66725 8.64542 4.92835 8.08656C4.87642 8.04735 4.80666 8.04153 4.74905 8.07146L2.13676 9.43141C1.96833 9.51907 1.83322 9.66291 1.75615 9.8365L0.0727981 13.6286C-0.0432588 13.89 -0.0194728 14.1891 0.136446 14.4289C0.292292 14.6686 0.556048 14.8117 0.842026 14.8117H14.0393C14.3253 14.8117 14.5891 14.6686 14.745 14.4288C14.9008 14.1891 14.9247 13.8899 14.8086 13.6286Z" fill="#D1D4D6"/>
<path d="M5.468 10.361C5.822 10.043 6.08 9.743 6.242 9.461C6.404 9.179 6.485 8.894 6.485 8.606C6.485 8.522 6.479 8.438 6.467 8.354H5.495V7.598H6.215C6.101 7.358 5.984 7.124 5.864 6.896C5.744 6.662 5.684 6.41 5.684 6.14C5.684 5.852 5.765 5.588 5.927 5.348C6.089 5.108 6.302 4.919 6.566 4.781C6.836 4.637 7.136 4.565 7.466 4.565C7.814 4.565 8.144 4.649 8.456 4.817C8.774 4.985 9.035 5.216 9.239 5.51L8.708 6.122C8.564 5.9 8.375 5.72 8.141 5.582C7.907 5.444 7.676 5.375 7.448 5.375C7.202 5.375 6.995 5.459 6.827 5.627C6.665 5.789 6.584 5.99 6.584 6.23C6.584 6.458 6.644 6.68 6.764 6.896C6.89 7.112 7.01 7.346 7.124 7.598H8.762V8.354H7.331C7.343 8.42 7.349 8.489 7.349 8.561C7.349 8.843 7.286 9.113 7.16 9.371C7.034 9.623 6.821 9.908 6.521 10.226C6.749 10.16 6.974 10.127 7.196 10.127C7.424 10.127 7.634 10.154 7.826 10.208C8.024 10.262 8.228 10.289 8.438 10.289C8.546 10.289 8.657 10.277 8.771 10.253C8.885 10.223 9.014 10.184 9.158 10.136L9.401 10.874C9.251 10.958 9.086 11.021 8.906 11.063C8.732 11.111 8.558 11.135 8.384 11.135C8.204 11.135 8.027 11.114 7.853 11.072C7.679 11.036 7.505 10.997 7.331 10.955C7.157 10.913 6.974 10.892 6.782 10.892C6.626 10.892 6.449 10.91 6.251 10.946C6.059 10.976 5.876 11.018 5.702 11.072L5.468 10.361Z" fill="#3C3F42"/>
</g>
<defs>
<clipPath id="clip0">
<rect width="14.8814" height="14.8813" fill="white"/>
</clipPath>
</defs>
</svg>
