<svg width="15" height="15" viewBox="0 0 15 15" fill="none" xmlns="http://www.w3.org/2000/svg">
<g clip-path="url(#clip0)">
<path d="M13.9953 6.9206C14.2522 6.63805 14.2274 6.20497 13.9399 5.95355L7.60589 0.411234C7.31839 0.159814 6.85745 0.165081 6.576 0.423107L0.220428 6.24904C-0.0610209 6.50707 -0.0748346 6.93959 0.189844 7.21471L0.349187 7.38066C0.613543 7.65578 1.04084 7.68858 1.30298 7.4537L1.77796 7.02834V13.2557C1.77796 13.6378 2.08755 13.9471 2.46934 13.9471H4.94676C5.32856 13.9471 5.63814 13.6378 5.63814 13.2557V8.89907H8.79812V13.2557C8.79262 13.6375 9.0658 13.9468 9.4476 13.9468H12.073C12.4548 13.9468 12.7644 13.6375 12.7644 13.2554V7.11603C12.7644 7.11603 12.8956 7.23098 13.0575 7.37322C13.219 7.5152 13.5584 7.40136 13.8153 7.11852L13.9953 6.9206Z" fill="#3C3F42"/>
</g>
<defs>
<clipPath id="clip0">
<rect width="14.1729" height="14.1729" fill="white"/>
</clipPath>
</defs>
</svg>
