<svg width="95" height="16" viewBox="0 0 95 16" fill="none" xmlns="http://www.w3.org/2000/svg">
<g clip-path="url(#clip0)">
<path d="M13.9953 7.9206C14.2522 7.63805 14.2274 7.20497 13.9399 6.95355L7.60589 1.41123C7.31839 1.15981 6.85745 1.16508 6.576 1.42311L0.220428 7.24904C-0.0610209 7.50707 -0.0748346 7.93959 0.189844 8.21471L0.349187 8.38066C0.613543 8.65578 1.04084 8.68858 1.30298 8.4537L1.77796 8.02834V14.2557C1.77796 14.6378 2.08755 14.9471 2.46934 14.9471H4.94676C5.32856 14.9471 5.63814 14.6378 5.63814 14.2557V9.89907H8.79812V14.2557C8.79262 14.6375 9.0658 14.9468 9.4476 14.9468H12.073C12.4548 14.9468 12.7644 14.6375 12.7644 14.2554V8.11603C12.7644 8.11603 12.8956 8.23098 13.0575 8.37322C13.219 8.5152 13.5584 8.40136 13.8153 8.11852L13.9953 7.9206Z" fill="#3C3F42"/>
</g>
<g clip-path="url(#clip1)">
<path d="M53.4407 7.88024C55.2834 7.88024 56.7773 6.13175 56.7773 3.97489C56.7773 0.983924 55.2834 0.0695801 53.4407 0.0695801C51.5979 0.0695801 50.1041 0.983924 50.1041 3.97489C50.1042 6.13175 51.598 7.88024 53.4407 7.88024Z" fill="#D1D4D6"/>
<path d="M60.8086 13.6286L59.1253 9.8365C59.0483 9.66298 58.913 9.51907 58.7446 9.43141L56.1322 8.07146C56.0746 8.04153 56.0048 8.04735 55.953 8.08656C55.2141 8.64542 54.3454 8.94082 53.4407 8.94082C52.5359 8.94082 51.6672 8.64542 50.9284 8.08656C50.8764 8.04735 50.8067 8.04153 50.749 8.07146L48.1368 9.43141C47.9683 9.51907 47.8332 9.66291 47.7562 9.8365L46.0728 13.6286C45.9567 13.89 45.9805 14.1891 46.1364 14.4289C46.2923 14.6686 46.556 14.8117 46.842 14.8117H60.0393C60.3253 14.8117 60.5891 14.6686 60.745 14.4288C60.9008 14.1891 60.9247 13.8899 60.8086 13.6286Z" fill="#D1D4D6"/>
<path d="M51.468 10.361C51.822 10.043 52.08 9.743 52.242 9.461C52.404 9.179 52.485 8.894 52.485 8.606C52.485 8.522 52.479 8.438 52.467 8.354H51.495V7.598H52.215C52.101 7.358 51.984 7.124 51.864 6.896C51.744 6.662 51.684 6.41 51.684 6.14C51.684 5.852 51.765 5.588 51.927 5.348C52.089 5.108 52.302 4.919 52.566 4.781C52.836 4.637 53.136 4.565 53.466 4.565C53.814 4.565 54.144 4.649 54.456 4.817C54.774 4.985 55.035 5.216 55.239 5.51L54.708 6.122C54.564 5.9 54.375 5.72 54.141 5.582C53.907 5.444 53.676 5.375 53.448 5.375C53.202 5.375 52.995 5.459 52.827 5.627C52.665 5.789 52.584 5.99 52.584 6.23C52.584 6.458 52.644 6.68 52.764 6.896C52.89 7.112 53.01 7.346 53.124 7.598H54.762V8.354H53.331C53.343 8.42 53.349 8.489 53.349 8.561C53.349 8.843 53.286 9.113 53.16 9.371C53.034 9.623 52.821 9.908 52.521 10.226C52.749 10.16 52.974 10.127 53.196 10.127C53.424 10.127 53.634 10.154 53.826 10.208C54.024 10.262 54.228 10.289 54.438 10.289C54.546 10.289 54.657 10.277 54.771 10.253C54.885 10.223 55.014 10.184 55.158 10.136L55.401 10.874C55.251 10.958 55.086 11.021 54.906 11.063C54.732 11.111 54.558 11.135 54.384 11.135C54.204 11.135 54.027 11.114 53.853 11.072C53.679 11.036 53.505 10.997 53.331 10.955C53.157 10.913 52.974 10.892 52.782 10.892C52.626 10.892 52.449 10.91 52.251 10.946C52.059 10.976 51.876 11.018 51.702 11.072L51.468 10.361Z" fill="#3C3F42"/>
</g>
<g clip-path="url(#clip2)">
<path d="M70.4407 7.88024C72.2834 7.88024 73.7773 6.13175 73.7773 3.97489C73.7773 0.983924 72.2834 0.0695801 70.4407 0.0695801C68.5979 0.0695801 67.1041 0.983924 67.1041 3.97489C67.1042 6.13175 68.598 7.88024 70.4407 7.88024Z" fill="#D1D4D6"/>
<path d="M77.8086 13.6286L76.1253 9.8365C76.0483 9.66298 75.913 9.51907 75.7446 9.43141L73.1322 8.07146C73.0746 8.04153 73.0048 8.04735 72.953 8.08656C72.2141 8.64542 71.3454 8.94082 70.4407 8.94082C69.5359 8.94082 68.6672 8.64542 67.9284 8.08656C67.8764 8.04735 67.8067 8.04153 67.749 8.07146L65.1368 9.43141C64.9683 9.51907 64.8332 9.66291 64.7562 9.8365L63.0728 13.6286C62.9567 13.89 62.9805 14.1891 63.1364 14.4289C63.2923 14.6686 63.556 14.8117 63.842 14.8117H77.0393C77.3253 14.8117 77.5891 14.6686 77.745 14.4288C77.9008 14.1891 77.9247 13.8899 77.8086 13.6286Z" fill="#D1D4D6"/>
<path d="M68.468 10.361C68.822 10.043 69.08 9.743 69.242 9.461C69.404 9.179 69.485 8.894 69.485 8.606C69.485 8.522 69.479 8.438 69.467 8.354H68.495V7.598H69.215C69.101 7.358 68.984 7.124 68.864 6.896C68.744 6.662 68.684 6.41 68.684 6.14C68.684 5.852 68.765 5.588 68.927 5.348C69.089 5.108 69.302 4.919 69.566 4.781C69.836 4.637 70.136 4.565 70.466 4.565C70.814 4.565 71.144 4.649 71.456 4.817C71.774 4.985 72.035 5.216 72.239 5.51L71.708 6.122C71.564 5.9 71.375 5.72 71.141 5.582C70.907 5.444 70.676 5.375 70.448 5.375C70.202 5.375 69.995 5.459 69.827 5.627C69.665 5.789 69.584 5.99 69.584 6.23C69.584 6.458 69.644 6.68 69.764 6.896C69.89 7.112 70.01 7.346 70.124 7.598H71.762V8.354H70.331C70.343 8.42 70.349 8.489 70.349 8.561C70.349 8.843 70.286 9.113 70.16 9.371C70.034 9.623 69.821 9.908 69.521 10.226C69.749 10.16 69.974 10.127 70.196 10.127C70.424 10.127 70.634 10.154 70.826 10.208C71.024 10.262 71.228 10.289 71.438 10.289C71.546 10.289 71.657 10.277 71.771 10.253C71.885 10.223 72.014 10.184 72.158 10.136L72.401 10.874C72.251 10.958 72.086 11.021 71.906 11.063C71.732 11.111 71.558 11.135 71.384 11.135C71.204 11.135 71.027 11.114 70.853 11.072C70.679 11.036 70.505 10.997 70.331 10.955C70.157 10.913 69.974 10.892 69.782 10.892C69.626 10.892 69.449 10.91 69.251 10.946C69.059 10.976 68.876 11.018 68.702 11.072L68.468 10.361Z" fill="#3C3F42"/>
</g>
<g clip-path="url(#clip3)">
<path d="M87.4407 7.88024C89.2834 7.88024 90.7773 6.13175 90.7773 3.97489C90.7773 0.983924 89.2834 0.0695801 87.4407 0.0695801C85.5979 0.0695801 84.1041 0.983924 84.1041 3.97489C84.1042 6.13175 85.598 7.88024 87.4407 7.88024Z" fill="#D1D4D6"/>
<path d="M94.8086 13.6286L93.1253 9.8365C93.0483 9.66298 92.913 9.51907 92.7446 9.43141L90.1322 8.07146C90.0746 8.04153 90.0048 8.04735 89.953 8.08656C89.2141 8.64542 88.3454 8.94082 87.4407 8.94082C86.5359 8.94082 85.6672 8.64542 84.9284 8.08656C84.8764 8.04735 84.8067 8.04153 84.749 8.07146L82.1368 9.43141C81.9683 9.51907 81.8332 9.66291 81.7562 9.8365L80.0728 13.6286C79.9567 13.89 79.9805 14.1891 80.1364 14.4289C80.2923 14.6686 80.556 14.8117 80.842 14.8117H94.0393C94.3253 14.8117 94.5891 14.6686 94.745 14.4288C94.9008 14.1891 94.9247 13.8899 94.8086 13.6286Z" fill="#D1D4D6"/>
<path d="M85.468 10.361C85.822 10.043 86.08 9.743 86.242 9.461C86.404 9.179 86.485 8.894 86.485 8.606C86.485 8.522 86.479 8.438 86.467 8.354H85.495V7.598H86.215C86.101 7.358 85.984 7.124 85.864 6.896C85.744 6.662 85.684 6.41 85.684 6.14C85.684 5.852 85.765 5.588 85.927 5.348C86.089 5.108 86.302 4.919 86.566 4.781C86.836 4.637 87.136 4.565 87.466 4.565C87.814 4.565 88.144 4.649 88.456 4.817C88.774 4.985 89.035 5.216 89.239 5.51L88.708 6.122C88.564 5.9 88.375 5.72 88.141 5.582C87.907 5.444 87.676 5.375 87.448 5.375C87.202 5.375 86.995 5.459 86.827 5.627C86.665 5.789 86.584 5.99 86.584 6.23C86.584 6.458 86.644 6.68 86.764 6.896C86.89 7.112 87.01 7.346 87.124 7.598H88.762V8.354H87.331C87.343 8.42 87.349 8.489 87.349 8.561C87.349 8.843 87.286 9.113 87.16 9.371C87.034 9.623 86.821 9.908 86.521 10.226C86.749 10.16 86.974 10.127 87.196 10.127C87.424 10.127 87.634 10.154 87.826 10.208C88.024 10.262 88.228 10.289 88.438 10.289C88.546 10.289 88.657 10.277 88.771 10.253C88.885 10.223 89.014 10.184 89.158 10.136L89.401 10.874C89.251 10.958 89.086 11.021 88.906 11.063C88.732 11.111 88.558 11.135 88.384 11.135C88.204 11.135 88.027 11.114 87.853 11.072C87.679 11.036 87.505 10.997 87.331 10.955C87.157 10.913 86.974 10.892 86.782 10.892C86.626 10.892 86.449 10.91 86.251 10.946C86.059 10.976 85.876 11.018 85.702 11.072L85.468 10.361Z" fill="#3C3F42"/>
</g>
<g clip-path="url(#clip4)">
<path d="M36.4407 7.88024C38.2834 7.88024 39.7773 6.13175 39.7773 3.97489C39.7773 0.983924 38.2834 0.0695801 36.4407 0.0695801C34.5979 0.0695801 33.1041 0.983924 33.1041 3.97489C33.1042 6.13175 34.598 7.88024 36.4407 7.88024Z" fill="#D1D4D6"/>
<path d="M43.8086 13.6286L42.1253 9.8365C42.0483 9.66298 41.913 9.51907 41.7446 9.43141L39.1322 8.07146C39.0746 8.04153 39.0048 8.04735 38.953 8.08656C38.2141 8.64542 37.3454 8.94082 36.4407 8.94082C35.5359 8.94082 34.6672 8.64542 33.9284 8.08656C33.8764 8.04735 33.8067 8.04153 33.749 8.07146L31.1368 9.43141C30.9683 9.51907 30.8332 9.66291 30.7562 9.8365L29.0728 13.6286C28.9567 13.89 28.9805 14.1891 29.1364 14.4289C29.2923 14.6686 29.556 14.8117 29.842 14.8117H43.0393C43.3253 14.8117 43.5891 14.6686 43.745 14.4288C43.9008 14.1891 43.9247 13.8899 43.8086 13.6286Z" fill="#D1D4D6"/>
<path d="M34.468 10.361C34.822 10.043 35.08 9.743 35.242 9.461C35.404 9.179 35.485 8.894 35.485 8.606C35.485 8.522 35.479 8.438 35.467 8.354H34.495V7.598H35.215C35.101 7.358 34.984 7.124 34.864 6.896C34.744 6.662 34.684 6.41 34.684 6.14C34.684 5.852 34.765 5.588 34.927 5.348C35.089 5.108 35.302 4.919 35.566 4.781C35.836 4.637 36.136 4.565 36.466 4.565C36.814 4.565 37.144 4.649 37.456 4.817C37.774 4.985 38.035 5.216 38.239 5.51L37.708 6.122C37.564 5.9 37.375 5.72 37.141 5.582C36.907 5.444 36.676 5.375 36.448 5.375C36.202 5.375 35.995 5.459 35.827 5.627C35.665 5.789 35.584 5.99 35.584 6.23C35.584 6.458 35.644 6.68 35.764 6.896C35.89 7.112 36.01 7.346 36.124 7.598H37.762V8.354H36.331C36.343 8.42 36.349 8.489 36.349 8.561C36.349 8.843 36.286 9.113 36.16 9.371C36.034 9.623 35.821 9.908 35.521 10.226C35.749 10.16 35.974 10.127 36.196 10.127C36.424 10.127 36.634 10.154 36.826 10.208C37.024 10.262 37.228 10.289 37.438 10.289C37.546 10.289 37.657 10.277 37.771 10.253C37.885 10.223 38.014 10.184 38.158 10.136L38.401 10.874C38.251 10.958 38.086 11.021 37.906 11.063C37.732 11.111 37.558 11.135 37.384 11.135C37.204 11.135 37.027 11.114 36.853 11.072C36.679 11.036 36.505 10.997 36.331 10.955C36.157 10.913 35.974 10.892 35.782 10.892C35.626 10.892 35.449 10.91 35.251 10.946C35.059 10.976 34.876 11.018 34.702 11.072L34.468 10.361Z" fill="#3C3F42"/>
</g>
<line x1="18" y1="8.5" x2="24" y2="8.5" stroke="black"/>
<line x1="18" y1="11.5" x2="24" y2="11.5" stroke="black"/>
<defs>
<clipPath id="clip0">
<rect width="14.1729" height="14.1729" fill="white" transform="translate(0 1)"/>
</clipPath>
<clipPath id="clip1">
<rect width="14.8814" height="14.8813" fill="white" transform="translate(46)"/>
</clipPath>
<clipPath id="clip2">
<rect width="14.8814" height="14.8813" fill="white" transform="translate(63)"/>
</clipPath>
<clipPath id="clip3">
<rect width="14.8814" height="14.8813" fill="white" transform="translate(80)"/>
</clipPath>
<clipPath id="clip4">
<rect width="14.8814" height="14.8813" fill="white" transform="translate(29)"/>
</clipPath>
</defs>
</svg>
